<svg xmlns="http://www.w3.org/2000/svg" viewBox="0 0 512 512" width="512" height="512"><g transform="translate(64,467) scale(0.1,-0.1)" fill="#4682ff"><path d="M963 3996 l-963 -211 0 -845 c0 -936 1 -953 61 -1145 120 -381 447 -804 904 -1170 339 -272 892 -617 990 -618 12 0 279 169 550 348 660 437 1119 955 1273 1437 68 213 72 272 72 1195 l0 798 -882 193 c-486 106 -919 201 -963 211 l-80 17 -962 -210z m1070 -1241 c364 -95 475 -525 204 -788 l-70 -69 27 -381 c15 -210 29 -408 33 -439 l6 -58 -308 0 -308 0 6 58 c4 31 18 229 33 439 l27 381 -70 69 c-343 333 -37 907 420 788z"/></g></svg>
